<?xml version="1.0" ?><!DOCTYPE svg  PUBLIC '-//W3C//DTD SVG 1.1//EN'  'http://www.w3.org/Graphics/SVG/1.1/DTD/svg11.dtd'><svg height="100%" style="fill-rule:evenodd;clip-rule:evenodd;stroke-linejoin:round;stroke-miterlimit:2;" version="1.1" viewBox="0 0 32 32" width="100%" xml:space="preserve" xmlns="http://www.w3.org/2000/svg" xmlns:serif="http://www.serif.com/" xmlns:xlink="http://www.w3.org/1999/xlink"><path d="M16,1.993c-7.727,-0 -14,6.273 -14,14c0,7.726 6.273,14 14,14c7.727,-0 14,-6.274 14,-14c0,-7.727 -6.273,-14 -14,-14Zm6,17.018l-0,-5.988c-0,-1.657 -1.343,-3 -3,-3c-1.743,-0 -4.257,-0 -6,-0c-1.657,-0 -3,1.343 -3,3l0,5.988c0,1.656 1.343,3 3,3c1.743,-0 4.257,-0 6,-0c1.657,-0 3,-1.344 3,-3Z"/></svg>